<?xml version="1.0" encoding="UTF-8"?> <!-- Creator: CorelDRAW X8 --> <svg xmlns="http://www.w3.org/2000/svg" xmlns:xlink="http://www.w3.org/1999/xlink" xml:space="preserve" width="267.553mm" height="52.2525mm" style="shape-rendering:geometricPrecision; text-rendering:geometricPrecision; image-rendering:optimizeQuality; fill-rule:evenodd; clip-rule:evenodd" viewBox="0 0 26614 5198"> <defs> <style type="text/css"> <![CDATA[ .fil1 {fill:#2B2A29;fill-rule:nonzero} .fil0 {fill:#E42A24;fill-rule:nonzero} ]]> </style> </defs> <g id="Слой_x0020_1"> <metadata id="CorelCorpID_0Corel-Layer"></metadata> <path class="fil0" d="M1756 415l-262 0c-396,0 -779,262 -779,1022 0,734 351,970 779,970l262 0 0 -1992zm-409 2401l-779 1750 -568 0 856 -1871c-403,-205 -671,-575 -671,-1258 0,-958 607,-1437 1328,-1437l735 0 0 4566 -492 0 0 -1750 -409 0z"></path> <path class="fil1" d="M11800 2956c0,-1008 390,-1653 1143,-1653 288,0 453,76 594,166l-70 472c-134,-115 -326,-223 -530,-223 -358,0 -613,402 -613,1213 0,804 191,1264 594,1264 242,0 427,-96 542,-198l115 371c-172,147 -376,242 -670,242 -690,0 -1105,-555 -1105,-1654zm-1456 7l0 1603 -498 0 0 -3219 498 0 0 1488 773 -1488 504 0 -798 1514 913 1705 -542 0 -850 -1603zm-2343 -300l824 0c0,-549 -90,-952 -377,-952 -307,0 -415,377 -447,952zm549 1947c-664,0 -1073,-530 -1073,-1519 0,-1035 288,-1788 971,-1788 536,0 887,402 887,1494l0 274 -1341 0c0,728 205,1111 601,1111 281,0 504,-127 632,-217l115 384c-205,159 -473,261 -792,261zm-2120 -2860l-555 0 0 57c0,677 -32,1667 -301,2350l856 0 0 -2407zm747 3448l-447 0 0 -632 -1379 0 0 632 -447 0 0 -1041 198 0c294,-683 326,-1679 326,-2535l0 -275 1494 0 0 2810 255 0 0 1041zm-2560 -3851l0 3219 -492 0 0 -1444 -741 0 0 1444 -498 0 0 -3219 498 0 0 1367 741 0 0 -1367 492 0z"></path> <path class="fil1" d="M15446 3416c-70,837 -268,1175 -657,1175 -77,0 -109,-13 -109,-13l-19 -300c0,0 26,7 70,7 262,0 377,-281 428,-894 128,-1418 141,-3219 141,-3391l1570 0 0 4566 -319 0 0 -4304 -977 0c0,134 -6,1705 -128,3154z"></path> <path class="fil1" d="M19099 2324c0,-166 13,-306 25,-440l-19 0c-44,140 -102,274 -172,415l-1047 2267 -256 0 0 -3219 281 0 0 2235c0,173 -13,313 -25,454l19 0c44,-147 108,-288 172,-428l1047 -2261 262 0 0 3219 -287 0 0 -2242z"></path> <polygon class="fil1" points="21889,5198 21851,4566 20153,4566 20153,1347 20453,1347 20453,4323 21532,4323 21532,1347 21832,1347 21832,4323 22126,4323 22126,5198 "></polygon> <path class="fil1" d="M22790 2771l1168 0c51,-855 -204,-1238 -530,-1238 -338,0 -613,434 -638,1238zm702 1597c428,0 651,-345 651,-345l96 242c0,0 -243,364 -753,364 -684,0 -996,-619 -996,-1673 0,-1053 395,-1673 938,-1673 556,0 913,582 811,1725l-1456 0c13,881 243,1360 709,1360z"></path> <g id="_2047303922416"> <path class="fil1" d="M26327 2324c0,-85 2,-162 6,-233 5,-70 11,-139 20,-207l-20 0c-21,72 -46,141 -76,207 -30,66 -62,135 -96,208l-1047 2266 -255 0 0 -3217 281 0 0 2234c0,85 -2,164 -7,236 -4,72 -10,145 -19,217l19 0c22,-72 47,-144 77,-214 30,-70 62,-141 96,-214l1047 -2259 261 0 0 3217 -287 0 0 -2241z"></path> <path class="fil1" d="M25140 428l268 0c0,293 115,434 332,434 223,0 338,-141 338,-434l262 0c0,389 -217,638 -600,638 -377,0 -600,-249 -600,-638z"></path> </g> </g> </svg> 